<svg width="728" height="228" viewBox="0 0 728 228" fill="none" xmlns="http://www.w3.org/2000/svg">
<path d="M82.0155 2.11145C73.8932 3.51907 68.2472 6.23378 65.0775 10.2556C62.1059 14.2774 60.6201 20.6117 60.6201 29.2585V179.774C60.6201 189.225 62.205 196.163 65.3747 200.587C68.5443 205.011 74.0913 207.826 82.0155 209.033V211.144H0V209.033C8.32041 207.826 13.9664 205.313 16.938 201.492C19.9096 197.47 21.3953 190.231 21.3953 179.774V29.2585C21.3953 20.2095 19.8105 13.7746 16.6408 9.95393C13.6692 6.13323 8.12231 3.51907 0 2.11145V0H82.0155V2.11145Z" fill="#6400C8"/>
<path d="M201.984 226.778C199.394 228.85 187.222 224.707 187.74 214.865C189.035 195.181 201.725 154.001 216.488 115.929C217.006 114.634 217.006 113.598 216.488 112.303L216.229 111.785C215.711 110.749 215.452 109.195 215.97 107.9C219.337 100.649 226.589 86.6629 229.697 85.6269C233.064 84.5909 243.423 90.5478 242.905 97.0226C242.387 103.497 214.934 154.001 206.646 202.174C204.315 215.124 271.913 92.1018 311.021 92.1018C318.014 92.1018 323.193 97.2816 323.193 108.159C323.193 126.289 292.891 199.843 300.402 203.987C312.316 210.721 387.424 123.181 392.345 118.001C397.266 112.821 399.856 117.483 397.007 121.368C394.158 125.253 325.783 212.534 302.733 212.534C290.301 212.534 284.344 201.656 284.344 196.994C284.344 162.03 315.165 103.497 308.949 98.8356C296.517 89.5118 244.2 155.555 201.984 226.778Z" fill="#FF4D37"/>
<path d="M159.702 62.0588C157.63 66.2027 149.601 60.7638 150.637 57.1379C151.673 53.512 156.853 31.4975 158.407 25.7996C159.961 20.1018 177.054 30.9795 174.723 36.4184C172.392 41.8573 161.774 57.6559 159.702 62.0588ZM120.335 213.829C112.824 213.829 105.572 210.721 105.572 198.807C105.572 174.203 119.299 129.656 124.738 119.037C125.515 117.483 125.515 116.188 125.256 114.893C124.997 113.34 123.443 112.822 124.479 110.75C130.176 99.3539 131.73 96.5049 133.543 95.9869C134.579 95.7279 136.133 95.728 137.687 96.5049C145.198 99.3539 155.04 109.714 153.227 112.822C134.579 142.088 108.162 203.728 118.004 208.39C131.989 214.865 194.666 148.304 222.896 110.75C229.112 102.462 230.666 111.268 227.817 114.376C224.968 117.483 151.414 213.829 120.335 213.829Z" fill="#FF4D37"/>
<path d="M728 165.528C725.153 180.97 719.208 192.472 710.165 200.036C701.29 207.442 690.74 211.144 678.515 211.144C668.3 211.144 659.006 208.781 650.632 204.054C642.427 199.327 635.896 192.394 631.039 183.255C626.183 173.958 623.755 162.849 623.755 149.928C623.755 137.165 626.016 125.899 630.537 116.13C635.059 106.203 641.506 98.4818 649.879 92.9668C658.419 87.2943 668.383 84.458 679.771 84.458C688.814 84.458 696.936 86.4276 704.136 90.3669C711.337 94.3061 716.947 100.215 720.966 108.094C725.153 115.814 727.079 125.269 726.744 136.456H646.362C647.2 152.686 651.637 165.37 659.675 174.509C667.714 183.491 678.264 187.982 691.326 187.982C699.364 187.982 706.313 186.406 712.175 183.255C718.036 179.946 722.641 173.879 725.99 165.055L728 165.528ZM673.993 90.1305C665.62 90.1305 658.922 93.9122 653.898 101.476C648.874 108.881 646.362 118.887 646.362 131.493H698.359C698.526 117.311 696.433 106.912 692.079 100.294C687.725 93.5183 681.697 90.1305 673.993 90.1305Z" fill="#6400C8"/>
<path d="M655.559 0.00012207V2.08183C648.409 3.07312 642.749 5.94785 638.578 10.706C634.606 15.4642 630.436 23.8901 626.067 35.9838L562.017 211.144H560.826L510.182 77.3205L460.73 211.144H459.539L392.212 33.3074C388.24 22.4032 384.368 14.6712 380.594 10.1113C377.019 5.55134 371.856 2.87486 365.103 2.08183V0.00012207H449.112V2.08183C443.353 2.6766 439.083 4.26266 436.302 6.84C433.522 9.2191 432.132 12.7877 432.132 17.5459C432.132 23.0971 433.621 29.6396 436.6 37.1734L476.519 147.206L505.714 66.0198L492.606 31.2257C489.23 22.3041 486.151 15.9598 483.371 12.1929C480.59 8.2278 476.32 4.85743 470.561 2.08183V0.00012207H553.08V2.08183C546.526 2.47834 541.462 4.16353 537.887 7.13739C534.511 9.91299 532.823 13.8781 532.823 19.0328C532.823 22.998 533.816 27.5579 535.802 32.7126L577.806 146.909L617.129 37.1734C619.513 31.0274 620.704 25.278 620.704 19.925C620.704 9.02084 614.051 3.07312 600.745 2.08183V0.00012207H655.559Z" fill="#6400C8"/>
</svg>
