<svg width="728" height="228" viewBox="0 0 728 228" fill="none" xmlns="http://www.w3.org/2000/svg">
<path d="M82.0155 2.39709C73.8932 3.80471 68.2472 6.51942 65.0775 10.5412C62.1059 14.563 60.6201 20.8973 60.6201 29.5442V180.06C60.6201 189.511 62.205 196.449 65.3747 200.873C68.5443 205.297 74.0913 208.112 82.0155 209.318V211.43H0V209.318C8.32041 208.112 13.9664 205.598 16.938 201.777C19.9096 197.756 21.3953 190.516 21.3953 180.06V29.5442C21.3953 20.4952 19.8105 14.0603 16.6408 10.2396C13.6692 6.41887 8.12231 3.80471 0 2.39709V0.285645H82.0155V2.39709Z" fill="#6400C8"/>
<path d="M201.984 227.064C199.394 229.136 187.222 224.992 187.74 215.151C189.035 195.467 201.725 154.287 216.488 116.215C217.006 114.92 217.006 113.884 216.488 112.589L216.229 112.071C215.711 111.035 215.452 109.481 215.97 108.186C219.337 100.934 226.589 86.9488 229.697 85.9128C233.064 84.8768 243.423 90.8337 242.905 97.3085C242.387 103.783 214.934 154.287 206.646 202.46C204.315 215.41 271.913 92.3877 311.021 92.3877C318.014 92.3877 323.193 97.5675 323.193 108.445C323.193 126.575 292.891 200.129 300.402 204.273C312.316 211.007 387.424 123.467 392.345 118.287C397.266 113.107 399.856 117.769 397.007 121.654C394.158 125.539 325.783 212.82 302.733 212.82C290.301 212.82 284.344 201.942 284.344 197.28C284.344 162.316 315.165 103.783 308.949 99.1215C296.517 89.7977 244.2 155.841 201.984 227.064Z" fill="#FF4D37"/>
<path d="M159.702 62.3445C157.63 66.4884 149.601 61.0496 150.637 57.4237C151.673 53.7977 156.853 31.7833 158.407 26.0854C159.961 20.3876 177.054 31.2653 174.723 36.7042C172.392 42.143 161.774 57.9416 159.702 62.3445ZM120.335 214.115C112.824 214.115 105.572 211.007 105.572 199.093C105.572 174.489 119.299 129.942 124.738 119.323C125.515 117.769 125.515 116.474 125.256 115.179C124.997 113.625 123.443 113.107 124.479 111.035C130.176 99.6396 131.73 96.7907 133.543 96.2727C134.579 96.0137 136.133 96.0137 137.687 96.7907C145.198 99.6396 155.04 109.999 153.227 113.107C134.579 142.374 108.162 204.014 118.004 208.676C131.989 215.151 194.666 148.589 222.896 111.035C229.112 102.748 230.666 111.553 227.817 114.661C224.968 117.769 151.414 214.115 120.335 214.115Z" fill="#FF4D37"/>
<path d="M728 165.813C725.153 181.255 719.208 192.758 710.165 200.321C701.29 207.727 690.74 211.43 678.515 211.43C668.3 211.43 659.006 209.066 650.633 204.339C642.427 199.612 635.896 192.679 631.04 183.54C626.183 174.243 623.755 163.135 623.755 150.214C623.755 137.451 626.016 126.184 630.537 116.415C635.059 106.488 641.506 98.7672 649.879 93.2522C658.42 87.5797 668.384 84.7434 679.771 84.7434C688.814 84.7434 696.936 86.713 704.137 90.6523C711.337 94.5915 716.947 100.5 720.967 108.379C725.153 116.1 727.079 125.554 726.744 136.742H646.362C647.2 152.971 651.637 165.656 659.676 174.795C667.714 183.776 678.264 188.267 691.326 188.267C699.364 188.267 706.314 186.691 712.175 183.54C718.036 180.231 722.641 174.165 725.99 165.341L728 165.813ZM673.994 90.4159C665.62 90.4159 658.922 94.1976 653.898 101.761C648.874 109.167 646.362 119.172 646.362 131.778H698.359C698.527 117.597 696.433 107.197 692.079 100.579C687.725 93.8037 681.697 90.4159 673.994 90.4159Z" fill="#6400C8"/>
<path d="M655.559 0.285645V2.36735C648.409 3.35864 642.749 6.23337 638.579 10.9915C634.607 15.7497 630.436 24.1757 626.067 36.2694L562.017 211.43H560.826L510.182 77.606L460.73 211.43H459.539L392.213 33.5929C388.241 22.6887 384.368 14.9567 380.594 10.3968C377.019 5.83686 371.856 3.16039 365.103 2.36735V0.285645H449.112V2.36735C443.353 2.96212 439.083 4.54818 436.302 7.12553C433.522 9.50462 432.132 13.0732 432.132 17.8314C432.132 23.3826 433.621 29.9251 436.6 37.4589L476.519 147.492L505.714 66.3054L492.606 31.5112C489.23 22.5896 486.151 16.2454 483.371 12.4785C480.591 8.51333 476.321 5.14296 470.561 2.36735V0.285645H553.08V2.36735C546.526 2.76386 541.462 4.44905 537.887 7.42291C534.511 10.1985 532.823 14.1637 532.823 19.3184C532.823 23.2835 533.816 27.8434 535.802 32.9981L577.806 147.194L617.13 37.4589C619.513 31.3129 620.704 25.5635 620.704 20.2105C620.704 9.30636 614.051 3.35864 600.745 2.36735V0.285645H655.559Z" fill="#6400C8"/>
</svg>
